<?xml version="1.0" standalone="no"?>
<!DOCTYPE svg PUBLIC "-//W3C//DTD SVG 20010904//EN"
 "http://www.w3.org/TR/2001/REC-SVG-20010904/DTD/svg10.dtd">
<svg version="1.0" xmlns="http://www.w3.org/2000/svg"
 width="834.000000pt" height="834.000000pt" viewBox="0 0 834.000000 834.000000"
 preserveAspectRatio="xMidYMid meet">
<metadata>
Created by potrace 1.11, written by Peter Selinger 2001-2013
</metadata>
<g transform="translate(0.000000,834.000000) scale(0.100000,-0.100000)"
fill="#000000" stroke="none">
<path d="M3240 8072 c-45 -5 -56 -14 -87 -76 -14 -28 -36 -64 -49 -79 -13 -16
-24 -37 -24 -47 0 -20 -43 -80 -107 -148 -35 -37 -47 -43 -65 -37 -13 5 -67 9
-121 10 -97 3 -100 2 -132 -27 -19 -16 -39 -44 -45 -63 -6 -18 -31 -52 -55
-74 -39 -36 -51 -41 -92 -41 -104 -1 -176 -11 -212 -30 -48 -24 -101 -84 -101
-113 0 -14 -17 -39 -41 -62 -23 -22 -47 -52 -53 -67 -6 -15 -62 -81 -123 -146
-105 -112 -116 -120 -170 -135 -102 -27 -137 -44 -156 -74 -17 -27 -17 -39 -2
-75 5 -13 0 -20 -19 -28 -14 -5 -33 -25 -43 -44 -9 -19 -24 -37 -34 -39 -14
-4 -19 -15 -19 -41 0 -31 -4 -38 -27 -47 -16 -6 -35 -16 -43 -23 -8 -7 -27
-16 -41 -19 -40 -10 -173 -162 -185 -213 -4 -16 -15 -46 -25 -66 -23 -45 -27
-186 -7 -206 8 -8 18 -69 25 -145 7 -73 17 -163 22 -202 23 -169 33 -334 27
-438 -3 -62 -9 -174 -12 -250 l-6 -137 40 -40 41 -41 113 7 113 6 50 -51 c45
-46 53 -51 93 -51 43 0 48 3 126 85 61 64 88 85 107 85 33 0 74 32 87 68 5 15
10 74 11 130 2 89 6 111 31 167 22 49 36 68 57 75 15 6 37 15 48 20 21 11 166
28 304 36 74 5 86 3 105 -15 31 -29 69 -41 155 -47 52 -4 85 -12 104 -26 38
-26 107 -46 191 -54 70 -7 72 -8 126 -65 44 -45 59 -69 69 -111 8 -29 20 -64
27 -78 7 -14 26 -77 41 -140 35 -147 39 -369 9 -460 -65 -198 -164 -310 -315
-357 -78 -24 -307 -25 -371 -1 -91 34 -146 61 -186 94 -23 18 -54 39 -69 46
-30 14 -152 166 -167 210 -6 17 -7 58 -4 96 10 100 6 225 -7 235 -18 12 -175
-1 -200 -17 -12 -8 -33 -17 -47 -21 -14 -4 -43 -24 -65 -45 -67 -64 -191 -82
-247 -35 -16 14 -38 25 -48 25 -27 0 -120 -51 -136 -74 -91 -132 -104 -163
-104 -251 0 -35 -7 -79 -16 -101 -9 -22 -20 -64 -24 -94 -5 -30 -14 -83 -21
-118 -10 -48 -10 -76 -2 -115 22 -105 45 -168 80 -219 46 -67 303 -324 363
-363 25 -16 54 -37 65 -47 13 -11 52 -22 100 -29 76 -10 83 -13 140 -63 33
-29 92 -71 130 -94 39 -23 93 -57 121 -76 62 -43 278 -271 289 -306 4 -14 18
-37 31 -52 12 -15 34 -51 47 -80 14 -29 41 -79 60 -111 20 -32 38 -76 42 -97
4 -21 13 -44 21 -51 7 -6 19 -29 24 -50 6 -21 21 -51 34 -66 18 -22 25 -44 28
-93 6 -89 26 -179 48 -216 10 -17 21 -47 25 -65 4 -19 13 -43 20 -54 7 -11 16
-70 20 -130 7 -119 16 -142 141 -387 24 -48 44 -93 44 -101 0 -31 41 -51 123
-62 81 -10 82 -11 85 -40 12 -115 58 -187 191 -300 33 -27 60 -57 60 -65 4
-68 96 -210 135 -210 8 0 67 20 130 45 64 25 120 45 124 45 5 0 30 16 55 35
78 60 141 43 154 -41 3 -22 12 -52 20 -67 24 -48 103 -146 141 -175 33 -25 41
-27 121 -24 76 3 89 0 109 -18 19 -18 30 -20 70 -14 40 5 55 14 102 64 36 38
69 62 95 70 104 32 131 85 146 289 6 77 16 148 24 165 8 17 17 50 19 74 2 24
11 51 19 60 8 9 18 30 21 47 12 47 24 56 65 49 20 -4 41 -10 46 -15 37 -29
140 -49 249 -48 36 0 106 31 106 47 0 4 20 28 44 54 23 26 50 64 58 85 18 42
36 223 28 269 -9 47 8 146 29 168 11 12 21 30 23 41 2 16 14 21 58 27 142 18
155 32 151 166 -1 59 2 88 12 103 10 13 13 34 10 60 -4 29 1 51 21 91 25 49
27 62 24 153 -1 55 3 125 10 155 7 30 16 87 21 125 4 39 15 84 24 102 11 20
17 56 17 98 0 46 6 78 20 105 11 22 20 46 20 55 0 9 6 26 14 38 8 12 17 33 19
47 4 24 14 53 43 115 8 17 36 61 64 100 27 38 50 81 50 94 0 22 31 100 65 162
8 14 16 38 19 55 3 17 22 44 44 64 21 19 51 52 67 74 15 21 47 52 70 68 26 19
50 47 61 72 21 47 46 69 89 76 24 4 37 17 67 70 21 36 58 86 83 112 25 26 45
52 45 58 0 5 13 24 28 42 80 93 101 173 102 373 l0 109 33 36 c55 58 58 74 28
168 -15 48 -33 88 -43 93 -22 12 -71 -12 -93 -44 -10 -16 -33 -27 -75 -36 -54
-12 -62 -12 -79 3 -23 21 -44 20 -65 -3 -19 -21 -124 -61 -160 -61 -12 0 -30
-7 -40 -15 -11 -8 -28 -15 -39 -15 -32 0 -159 -31 -219 -53 -47 -17 -58 -26
-58 -44 0 -12 -4 -24 -9 -27 -4 -3 -11 -40 -15 -83 -6 -71 -10 -81 -41 -113
-35 -35 -85 -121 -85 -143 0 -15 -76 -90 -107 -106 -12 -6 -29 -11 -37 -11 -9
0 -45 -20 -79 -44 -53 -37 -75 -46 -135 -54 -39 -6 -89 -8 -110 -5 -31 4 -46
0 -69 -16 -26 -19 -34 -21 -74 -12 -24 6 -60 11 -79 11 -19 0 -57 11 -85 25
-27 13 -67 25 -88 25 -30 0 -40 5 -48 24 -6 13 -25 28 -43 33 -22 6 -43 26
-71 67 l-40 58 2 224 c1 139 6 231 13 244 6 11 30 42 53 69 23 26 49 58 57 71
8 13 27 36 43 52 15 16 27 35 27 43 0 8 4 15 9 15 5 0 14 14 20 30 19 56 70
91 241 168 142 64 259 83 354 58 49 -13 71 -27 125 -78 36 -35 70 -75 74 -90
5 -17 15 -28 25 -28 10 0 27 -7 38 -15 10 -8 39 -15 62 -15 37 0 51 -7 90 -41
35 -30 46 -47 44 -64 -4 -28 37 -60 65 -51 10 4 41 37 68 74 45 58 56 68 90
73 22 3 57 13 79 22 21 9 46 17 55 17 9 0 41 24 70 54 l53 54 -7 52 c-7 50 -6
53 32 98 45 53 64 86 93 166 14 35 32 63 51 76 16 12 29 27 29 34 0 7 11 35
25 61 43 80 58 163 43 242 -11 57 -15 143 -19 391 0 17 0 38 1 45 2 28 -18
155 -28 173 -5 10 -13 55 -17 99 -4 44 -13 87 -20 95 -8 8 -17 27 -20 43 -18
69 -113 102 -213 74 -158 -45 -242 -56 -270 -38 -11 7 -10 26 7 107 12 54 21
113 21 131 0 40 -30 73 -67 74 -16 0 -37 3 -48 5 -29 7 -94 7 -327 4 -132 -2
-212 1 -220 8 -40 32 -268 72 -423 75 l-91 2 -59 -50 c-33 -27 -67 -58 -76
-68 -22 -23 -87 -67 -100 -67 -6 0 -41 -28 -77 -63 -37 -34 -83 -70 -103 -80
-35 -18 -36 -18 -73 3 -20 12 -41 30 -46 40 -11 21 -101 70 -129 70 -18 0 -45
-29 -148 -161 -18 -23 -33 -46 -33 -51 0 -6 -35 -47 -77 -92 -43 -45 -90 -101
-105 -124 -16 -23 -40 -60 -54 -82 -15 -22 -30 -40 -33 -40 -4 0 -31 -16 -61
-35 -43 -28 -64 -35 -103 -35 -44 0 -53 4 -100 49 -30 29 -74 58 -102 68 l-50
19 -7 319 c-4 176 -9 455 -11 620 -2 165 -7 316 -11 336 -4 20 -31 67 -59 105
-79 105 -228 197 -341 210 -22 3 -42 6 -45 7 -4 2 -22 1 -41 -1z"/>
</g>
</svg>
